<svg width="20" height="20" viewBox="0 0 20 20" fill="none" xmlns="http://www.w3.org/2000/svg">
<path d="M14.2101 18.1248H5.78933C4.48016 18.1248 3.35933 17.1898 3.12433 15.9023L1.91187 9.24979C1.76354 8.43229 2.06936 7.5965 2.71102 7.069L8.27936 2.49146C9.27686 1.67146 10.7243 1.67146 11.7218 2.49146L17.2902 7.069C17.9319 7.5965 18.2377 8.43229 18.0893 9.24979L16.8769 15.9023C16.6402 17.1898 15.5193 18.1248 14.2101 18.1248ZM9.99933 3.12562C9.66933 3.12562 9.34095 3.2356 9.07261 3.45643L3.50438 8.03397C3.21188 8.27397 3.07268 8.65402 3.14101 9.02569L4.35348 15.6773C4.47931 16.3706 5.08352 16.874 5.78852 16.874H14.2093C14.9143 16.874 15.5177 16.3706 15.6444 15.6773L16.8568 9.02477C16.9243 8.6531 16.7851 8.27397 16.4935 8.03397L10.9251 3.45643C10.6576 3.23643 10.3293 3.12562 9.99933 3.12562ZM16.2601 15.7898H16.2685H16.2601ZM12.291 14.1665C12.291 13.8215 12.011 13.5415 11.666 13.5415H8.33266C7.98766 13.5415 7.70766 13.8215 7.70766 14.1665C7.70766 14.5115 7.98766 14.7915 8.33266 14.7915H11.666C12.011 14.7915 12.291 14.5115 12.291 14.1665Z" fill="#818898"/>
</svg>
