<svg width="24" height="24" viewBox="0 0 24 24" fill="none" xmlns="http://www.w3.org/2000/svg">
<path d="M21 9.75H21.75C21.9489 9.75 22.1397 9.67098 22.2803 9.53033C22.421 9.38968 22.5 9.19891 22.5 9C22.5 8.80109 22.421 8.61032 22.2803 8.46967C22.1397 8.32902 21.9489 8.25 21.75 8.25H19.9245L18.5483 5.9565C18.2817 5.51227 17.9047 5.14463 17.4539 4.88939C17.003 4.63415 16.4938 4.5 15.9757 4.5H8.02425C7.50619 4.5 6.99696 4.63415 6.54614 4.88939C6.09533 5.14463 5.71829 5.51227 5.45175 5.9565L4.0755 8.25H2.25C2.05109 8.25 1.86032 8.32902 1.71967 8.46967C1.57902 8.61032 1.5 8.80109 1.5 9C1.5 9.19891 1.57902 9.38968 1.71967 9.53033C1.86032 9.67098 2.05109 9.75 2.25 9.75H3L2.1 10.9507C1.71053 11.47 1.5 12.1016 1.5 12.7507V15.7507C1.5 16.1486 1.65804 16.5301 1.93934 16.8114C2.22064 17.0927 2.60218 17.2507 3 17.2507V18.0007C3 18.3986 3.15804 18.7801 3.43934 19.0614C3.72064 19.3427 4.10218 19.5007 4.5 19.5007H6C6.39782 19.5007 6.77936 19.3427 7.06066 19.0614C7.34196 18.7801 7.5 18.3986 7.5 18.0007V17.2507H16.5V18.0007C16.5 18.3986 16.658 18.7801 16.9393 19.0614C17.2206 19.3427 17.6022 19.5007 18 19.5007H19.5C19.8978 19.5007 20.2794 19.3427 20.5607 19.0614C20.842 18.7801 21 18.3986 21 18.0007V17.2507C21.3978 17.2507 21.7794 17.0927 22.0607 16.8114C22.342 16.5301 22.5 16.1486 22.5 15.7507V12.7507C22.5 12.102 22.2893 11.4697 21.9 10.9507L21 9.75ZM4.875 15C4.72721 15 4.58088 14.9708 4.44437 14.9142C4.30785 14.8576 4.18382 14.7747 4.07935 14.6701C3.97488 14.5656 3.89203 14.4415 3.83552 14.3049C3.77901 14.1684 3.74995 14.022 3.75 13.8743C3.75005 13.7265 3.77921 13.5801 3.83581 13.4436C3.89241 13.3071 3.97534 13.1831 4.07988 13.0786C4.18442 12.9741 4.3085 12.8913 4.44506 12.8348C4.58161 12.7783 4.72796 12.7492 4.87575 12.7493C5.17422 12.7493 5.46042 12.868 5.6714 13.0791C5.88238 13.2902 6.00085 13.5765 6.00075 13.875C6.00065 14.1735 5.88199 14.4597 5.67087 14.6707C5.45975 14.8816 5.17347 15.0001 4.875 15ZM17.9678 9.12C17.3517 9.53081 16.6277 9.75002 15.8873 9.75H8.112C7.37186 9.75 6.64825 9.53107 6.03225 9.12075L5.511 8.7735L6.738 6.729C6.87127 6.50689 7.05979 6.32307 7.2852 6.19545C7.5106 6.06782 7.76522 6.00075 8.02425 6.00075H15.9765C16.2355 6.00075 16.4901 6.06782 16.7156 6.19545C16.941 6.32307 17.1295 6.50689 17.2628 6.729L18.4897 8.7735L17.9685 9.12075L17.9678 9.12ZM19.125 15C18.9772 15 18.8309 14.9708 18.6944 14.9142C18.5578 14.8576 18.4338 14.7747 18.3293 14.6701C18.2249 14.5656 18.142 14.4415 18.0855 14.3049C18.029 14.1684 18 14.022 18 13.8743C18 13.7265 18.0292 13.5801 18.0858 13.4436C18.1424 13.3071 18.2253 13.1831 18.3299 13.0786C18.4344 12.9741 18.5585 12.8913 18.6951 12.8348C18.8316 12.7783 18.978 12.7492 19.1257 12.7493C19.4242 12.7493 19.7104 12.868 19.9214 13.0791C20.1324 13.2902 20.2508 13.5765 20.2507 13.875C20.2507 14.1735 20.132 14.4597 19.9209 14.6707C19.7098 14.8816 19.4235 15.0001 19.125 15Z" fill="#A5A5AB"/>
</svg>
