<svg width="16" height="14" viewBox="0 0 16 14" fill="none" xmlns="http://www.w3.org/2000/svg">
<path d="M13 11.3333C11.346 11.3333 10 9.98733 10 8.33333C10 6.67933 11.346 5.33333 13 5.33333H14.6667V4C14.6667 3.26467 14.0687 2.66667 13.3333 2.66667H12.6667V1.33333C12.6667 0.598 12.0687 0 11.3333 0H2C1.52842 0.00112971 1.07243 0.168971 0.712653 0.473848C0.352876 0.778725 0.112491 1.201 0.034 1.666C0.0193333 1.72067 0 1.774 0 1.83333V12C0 13.1027 0.897333 14 2 14H13.3333C14.0687 14 14.6667 13.402 14.6667 12.6667V11.3333H13ZM1.33333 2C1.33333 1.63267 1.632 1.33333 2 1.33333H11.3333V2.66667H2C1.632 2.66667 1.33333 2.36733 1.33333 2Z" fill="white"/>
<path d="M15.5 6.3335H13C11.8973 6.3335 11 7.23083 11 8.3335C11 9.43616 11.8973 10.3335 13 10.3335H15.5C15.6326 10.3335 15.7598 10.2808 15.8536 10.187C15.9473 10.0933 16 9.9661 16 9.8335V6.8335C16 6.70089 15.9473 6.57371 15.8536 6.47994C15.7598 6.38617 15.6326 6.3335 15.5 6.3335ZM13 9.00016C12.8232 9.00016 12.6536 8.92992 12.5286 8.8049C12.4036 8.67988 12.3333 8.51031 12.3333 8.3335C12.3333 8.15669 12.4036 7.98712 12.5286 7.86209C12.6536 7.73707 12.8232 7.66683 13 7.66683C13.1768 7.66683 13.3464 7.73707 13.4714 7.86209C13.5964 7.98712 13.6667 8.15669 13.6667 8.3335C13.6667 8.51031 13.5964 8.67988 13.4714 8.8049C13.3464 8.92992 13.1768 9.00016 13 9.00016Z" fill="white"/>
</svg>
